<svg width="32" height="32" viewBox="0 0 32 32" fill="none" xmlns="http://www.w3.org/2000/svg">
<path d="M6.5 5.5H4.5V7.5H6.5V5.5Z" stroke="#923094"/>
<path d="M22 6H9V7H22V6Z" fill="#333333"/>
<path d="M26.5 5.5H24.5V7.5H26.5V5.5Z" stroke="#923094"/>
<path d="M6.5 23.5H4.5V25.5H6.5V23.5Z" stroke="#923094"/>
<path d="M23 24H9V25H23V24Z" fill="#333333"/>
<path d="M26.5 23.5H24.5V25.5H26.5V23.5Z" stroke="#923094"/>
<path d="M6 10H5V21H6V10Z" fill="#333333"/>
<path d="M26 10H25V21H26V10Z" fill="#333333"/>
<path d="M21 10H10V11H21V10Z" fill="#923094"/>
<path d="M16 11H15V21H16V11Z" fill="#923094"/>
<path d="M17.5 20H13.5C13.2239 20 13 20.2239 13 20.5C13 20.7761 13.2239 21 13.5 21H17.5C17.7761 21 18 20.7761 18 20.5C18 20.2239 17.7761 20 17.5 20Z" fill="#923094"/>
<path d="M11 10.5C11 10.2239 10.7761 10 10.5 10C10.2239 10 10 10.2239 10 10.5V11.5C10 11.7761 10.2239 12 10.5 12C10.7761 12 11 11.7761 11 11.5V10.5Z" fill="#923094"/>
<path d="M21 10.5C21 10.2239 20.7761 10 20.5 10C20.2239 10 20 10.2239 20 10.5V11.5C20 11.7761 20.2239 12 20.5 12C20.7761 12 21 11.7761 21 11.5V10.5Z" fill="#923094"/>
</svg>
